<svg version="1.1" viewBox="0.0 0.0 789.0 413.0" fill="none" stroke="none" stroke-linecap="square" stroke-miterlimit="10" xmlns:xlink="http://www.w3.org/1999/xlink" xmlns="http://www.w3.org/2000/svg"><clipPath id="p.0"><path d="m0 0l789.0 0l0 413.0l-789.0 0l0 -413.0z" clip-rule="nonzero"/></clipPath><g clip-path="url(#p.0)"><path fill="#000000" fill-opacity="0.0" d="m0 0l789.0 0l0 413.0l-789.0 0z" fill-rule="evenodd"/><path fill="#3c78d8" d="m151.17717 120.71654l486.64563 0l0 275.40155l-486.64563 0z" fill-rule="evenodd"/><path fill="#ffffff" d="m298.54373 371.28186l7.171875 0l0 9.375q-1.75 0.578125 -3.296875 0.796875q-1.53125 0.234375 -3.140625 0.234375q-4.09375 0 -6.25 -2.40625q-2.15625 -2.40625 -2.15625 -6.90625q0 -4.375 2.5 -6.828125q2.515625 -2.453125 6.953125 -2.453125q2.78125 0 5.359375 1.109375l-1.265625 3.078125q-1.984375 -1.0 -4.125 -1.0q-2.484375 0 -3.984375 1.671875q-1.484375 1.671875 -1.484375 4.5q0 2.9375 1.203125 4.5q1.203125 1.546875 3.5 1.546875q1.203125 0 2.4375 -0.25l0 -3.78125l-3.421875 0l0 -3.1875zm26.012512 10.15625l-4.34375 0l-4.734375 -7.625l-1.625 1.171875l0 6.453125l-3.828125 0l0 -18.078125l3.828125 0l0 8.265625l1.515625 -2.125l4.890625 -6.140625l4.25 0l-6.296875 8.0l6.34375 10.078125zm12.694458 0l-10.40625 0l0 -18.078125l10.40625 0l0 3.140625l-6.578125 0l0 3.96875l6.125 0l0 3.140625l-6.125 0l0 4.65625l6.578125 0l0 3.171875zm2.2477417 -5.25l0 -3.078125l6.640625 0l0 3.078125l-6.640625 0zm30.7919 5.25l-4.34375 0l-4.734375 -7.625l-1.625 1.171875l0 6.453125l-3.828125 0l0 -18.078125l3.828125 0l0 8.265625l1.515625 -2.125l4.890625 -6.140625l4.25 0l-6.296875 8.0l6.34375 10.078125zm11.788208 0l-0.515625 -1.765625l-0.203125 0q-0.59375 0.96875 -1.71875 1.5q-1.109375 0.515625 -2.53125 0.515625q-2.4375 0 -3.671875 -1.296875q-1.234375 -1.3125 -1.234375 -3.765625l0 -9.015625l3.765625 0l0 8.078125q0 1.5 0.53125 2.25q0.53125 0.734375 1.703125 0.734375q1.578125 0 2.28125 -1.046875q0.703125 -1.0625 0.703125 -3.515625l0 -6.5l3.78125 0l0 13.828125l-2.890625 0zm14.536926 -14.09375q2.453125 0 3.828125 1.921875q1.390625 1.90625 1.390625 5.234375q0 3.421875 -1.4375 5.3125q-1.421875 1.875 -3.875 1.875q-2.4375 0 -3.828125 -1.765625l-0.265625 0l-0.625 1.515625l-2.875 0l0 -19.25l3.765625 0l0 4.484375q0 0.859375 -0.140625 2.734375l0.140625 0q1.328125 -2.0625 3.921875 -2.0625zm-1.21875 3.03125q-1.390625 0 -2.03125 0.859375q-0.640625 0.859375 -0.671875 2.828125l0 0.40625q0 2.234375 0.65625 3.203125q0.671875 0.953125 2.109375 0.953125q1.15625 0 1.84375 -1.0625q0.6875 -1.078125 0.6875 -3.109375q0 -2.046875 -0.703125 -3.0625q-0.6875 -1.015625 -1.890625 -1.015625zm15.277954 -0.34375q-1.203125 0 -1.890625 0.765625q-0.671875 0.765625 -0.765625 2.15625l5.296875 0q-0.03125 -1.390625 -0.734375 -2.15625q-0.703125 -0.765625 -1.90625 -0.765625zm0.53125 11.65625q-3.34375 0 -5.21875 -1.84375q-1.875 -1.84375 -1.875 -5.21875q0 -3.484375 1.734375 -5.375q1.734375 -1.90625 4.8125 -1.90625q2.921875 0 4.546875 1.671875q1.640625 1.671875 1.640625 4.625l0 1.828125l-8.921875 0q0.0625 1.609375 0.953125 2.515625q0.890625 0.890625 2.5 0.890625q1.25 0 2.359375 -0.25q1.125 -0.265625 2.328125 -0.828125l0 2.90625q-0.984375 0.5 -2.109375 0.734375q-1.125 0.25 -2.75 0.25zm16.433136 -14.34375q0.765625 0 1.265625 0.125l-0.28125 3.53125q-0.453125 -0.125 -1.109375 -0.125q-1.8125 0 -2.828125 0.9375q-1.0 0.921875 -1.0 2.59375l0 7.03125l-3.765625 0l0 -13.828125l2.84375 0l0.5625 2.328125l0.1875 0q0.640625 -1.171875 1.734375 -1.875q1.09375 -0.71875 2.390625 -0.71875zm16.532776 14.09375l-3.765625 0l0 -8.078125q0 -1.5 -0.53125 -2.234375q-0.53125 -0.75 -1.6875 -0.75q-1.59375 0 -2.296875 1.0625q-0.703125 1.046875 -0.703125 3.5l0 6.5l-3.765625 0l0 -13.828125l2.875 0l0.515625 1.765625l0.203125 0q0.625 -1.0 1.734375 -1.515625q1.109375 -0.515625 2.515625 -0.515625q2.421875 0 3.65625 1.3125q1.25 1.296875 1.25 3.765625l0 9.015625zm9.615051 -11.40625q-1.203125 0 -1.890625 0.765625q-0.671875 0.765625 -0.765625 2.15625l5.296875 0q-0.03125 -1.390625 -0.734375 -2.15625q-0.703125 -0.765625 -1.90625 -0.765625zm0.53125 11.65625q-3.34375 0 -5.21875 -1.84375q-1.875 -1.84375 -1.875 -5.21875q0 -3.484375 1.734375 -5.375q1.734375 -1.90625 4.8125 -1.90625q2.921875 0 4.546875 1.671875q1.640625 1.671875 1.640625 4.625l0 1.828125l-8.921875 0q0.0625 1.609375 0.953125 2.515625q0.890625 0.890625 2.5 0.890625q1.25 0 2.359375 -0.25q1.125 -0.265625 2.328125 -0.828125l0 2.90625q-0.984375 0.5 -2.109375 0.734375q-1.125 0.25 -2.75 0.25zm14.526886 -3.015625q1.0 0 2.375 -0.421875l0 2.796875q-1.40625 0.640625 -3.453125 0.640625q-2.265625 0 -3.296875 -1.140625q-1.03125 -1.15625 -1.03125 -3.4375l0 -6.671875l-1.8125 0l0 -1.59375l2.078125 -1.25l1.09375 -2.921875l2.40625 0l0 2.9375l3.875 0l0 2.828125l-3.875 0l0 6.671875q0 0.796875 0.453125 1.1875q0.453125 0.375 1.1875 0.375zm10.900726 -8.640625q-1.203125 0 -1.890625 0.765625q-0.671875 0.765625 -0.765625 2.15625l5.296875 0q-0.03125 -1.390625 -0.734375 -2.15625q-0.703125 -0.765625 -1.90625 -0.765625zm0.53125 11.65625q-3.34375 0 -5.21875 -1.84375q-1.875 -1.84375 -1.875 -5.21875q0 -3.484375 1.734375 -5.375q1.734375 -1.90625 4.8125 -1.90625q2.921875 0 4.546875 1.671875q1.640625 1.671875 1.640625 4.625l0 1.828125l-8.921875 0q0.0625 1.609375 0.953125 2.515625q0.890625 0.890625 2.5 0.890625q1.25 0 2.359375 -0.25q1.125 -0.265625 2.328125 -0.828125l0 2.90625q-0.984375 0.5 -2.109375 0.734375q-1.125 0.25 -2.75 0.25zm18.355011 -4.359375q0 2.125 -1.484375 3.25q-1.46875 1.109375 -4.421875 1.109375q-1.5 0 -2.5625 -0.203125q-1.0625 -0.203125 -2.0 -0.609375l0 -3.109375q1.0625 0.5 2.375 0.828125q1.3125 0.328125 2.3125 0.328125q2.0625 0 2.0625 -1.1875q0 -0.4375 -0.28125 -0.71875q-0.265625 -0.28125 -0.9375 -0.625q-0.671875 -0.359375 -1.78125 -0.828125q-1.59375 -0.671875 -2.34375 -1.234375q-0.75 -0.578125 -1.09375 -1.3125q-0.328125 -0.734375 -0.328125 -1.8125q0 -1.84375 1.421875 -2.84375q1.4375 -1.015625 4.046875 -1.015625q2.5 0 4.875 1.09375l-1.140625 2.71875q-1.046875 -0.4375 -1.953125 -0.71875q-0.890625 -0.296875 -1.84375 -0.296875q-1.65625 0 -1.65625 0.90625q0 0.515625 0.53125 0.890625q0.546875 0.359375 2.359375 1.09375q1.625 0.65625 2.375 1.234375q0.75 0.5625 1.109375 1.3125q0.359375 0.734375 0.359375 1.75z" fill-rule="nonzero"/><path fill="#cfe2f3" d="m170.24803 194.88452l448.5039 0l0 135.8425l-448.5039 0z" fill-rule="evenodd"/><path fill="#ffffff" d="m280.95993 300.89078q-2.15625 0 -3.34375 1.640625q-1.1875 1.625 -1.1875 4.53125q0 6.046875 4.53125 6.046875q1.90625 0 4.609375 -0.953125l0 3.203125q-2.21875 0.9375 -4.96875 0.9375q-3.9375 0 -6.03125 -2.390625q-2.09375 -2.390625 -2.09375 -6.875q0 -2.8125 1.03125 -4.9375q1.03125 -2.125 2.953125 -3.25q1.921875 -1.140625 4.5 -1.140625q2.640625 0 5.296875 1.28125l-1.234375 3.109375q-1.015625 -0.484375 -2.046875 -0.84375q-1.03125 -0.359375 -2.015625 -0.359375zm11.936157 15.15625l-3.765625 0l0 -19.25l3.765625 0l0 19.25zm6.9638977 -6.9375q0 2.046875 0.671875 3.109375q0.671875 1.046875 2.203125 1.046875q1.5 0 2.15625 -1.046875q0.671875 -1.046875 0.671875 -3.109375q0 -2.046875 -0.671875 -3.078125q-0.671875 -1.03125 -2.1875 -1.03125q-1.515625 0 -2.1875 1.03125q-0.65625 1.015625 -0.65625 3.078125zm9.5625 0q0 3.375 -1.78125 5.28125q-1.78125 1.90625 -4.96875 1.90625q-1.984375 0 -3.515625 -0.875q-1.515625 -0.875 -2.328125 -2.5q-0.8125 -1.640625 -0.8125 -3.8125q0 -3.390625 1.765625 -5.265625q1.765625 -1.890625 4.96875 -1.890625q2.0 0 3.515625 0.875q1.515625 0.859375 2.328125 2.484375q0.828125 1.625 0.828125 3.796875zm12.916046 6.9375l-0.515625 -1.765625l-0.203125 0q-0.59375 0.96875 -1.71875 1.5q-1.109375 0.515625 -2.53125 0.515625q-2.4375 0 -3.671875 -1.296875q-1.234375 -1.3125 -1.234375 -3.765625l0 -9.015625l3.765625 0l0 8.078125q0 1.5 0.53125 2.25q0.53125 0.734375 1.703125 0.734375q1.578125 0 2.28125 -1.046875q0.703125 -1.0625 0.703125 -3.515625l0 -6.5l3.78125 0l0 13.828125l-2.890625 0zm11.224426 0.25q-2.4375 0 -3.828125 -1.890625q-1.390625 -1.890625 -1.390625 -5.25q0 -3.40625 1.40625 -5.296875q1.421875 -1.90625 3.90625 -1.90625q2.609375 0 3.984375 2.03125l0.125 0q-0.28125 -1.546875 -0.28125 -2.75l0 -4.4375l3.78125 0l0 19.25l-2.890625 0l-0.734375 -1.796875l-0.15625 0q-1.296875 2.046875 -3.921875 2.046875zm1.328125 -3.015625q1.4375 0 2.109375 -0.828125q0.671875 -0.84375 0.734375 -2.859375l0 -0.40625q0 -2.234375 -0.6875 -3.1875q-0.671875 -0.96875 -2.21875 -0.96875q-1.265625 0 -1.96875 1.078125q-0.703125 1.0625 -0.703125 3.09375q0 2.046875 0.703125 3.0625q0.71875 1.015625 2.03125 1.015625zm21.029205 -7.28125l1.234375 0q1.828125 0 2.6875 -0.609375q0.859375 -0.609375 0.859375 -1.90625q0 -1.28125 -0.890625 -1.828125q-0.875 -0.546875 -2.734375 -0.546875l-1.15625 0l0 4.890625zm0 3.109375l0 6.9375l-3.828125 0l0 -18.078125l5.265625 0q3.6875 0 5.453125 1.34375q1.765625 1.34375 1.765625 4.0625q0 1.609375 -0.875 2.859375q-0.875 1.234375 -2.484375 1.9375q4.078125 6.09375 5.3125 7.875l-4.25 0l-4.3125 -6.9375l-2.046875 0zm22.392395 6.9375l-0.515625 -1.765625l-0.203125 0q-0.59375 0.96875 -1.71875 1.5q-1.109375 0.515625 -2.53125 0.515625q-2.4375 0 -3.671875 -1.296875q-1.234375 -1.3125 -1.234375 -3.765625l0 -9.015625l3.765625 0l0 8.078125q0 1.5 0.53125 2.25q0.53125 0.734375 1.703125 0.734375q1.578125 0 2.28125 -1.046875q0.703125 -1.0625 0.703125 -3.515625l0 -6.5l3.78125 0l0 13.828125l-2.890625 0zm19.599457 0l-3.765625 0l0 -8.078125q0 -1.5 -0.53125 -2.234375q-0.53125 -0.75 -1.6875 -0.75q-1.59375 0 -2.296875 1.0625q-0.703125 1.046875 -0.703125 3.5l0 6.5l-3.765625 0l0 -13.828125l2.875 0l0.515625 1.765625l0.203125 0q0.625 -1.0 1.734375 -1.515625q1.109375 -0.515625 2.515625 -0.515625q2.421875 0 3.65625 1.3125q1.25 1.296875 1.25 3.765625l0 9.015625zm9.2413025 -5.25l0 -3.078125l6.640625 0l0 3.078125l-6.640625 0zm30.7919 5.25l-4.34375 0l-4.734375 -7.625l-1.625 1.171875l0 6.453125l-3.828125 0l0 -18.078125l3.828125 0l0 8.265625l1.515625 -2.125l4.890625 -6.140625l4.25 0l-6.296875 8.0l6.34375 10.078125zm14.741333 0l-3.765625 0l0 -8.078125q0 -1.5 -0.53125 -2.234375q-0.53125 -0.75 -1.6875 -0.75q-1.59375 0 -2.296875 1.0625q-0.703125 1.046875 -0.703125 3.5l0 6.5l-3.765625 0l0 -13.828125l2.875 0l0.515625 1.765625l0.203125 0q0.625 -1.0 1.734375 -1.515625q1.109375 -0.515625 2.515625 -0.515625q2.421875 0 3.65625 1.3125q1.25 1.296875 1.25 3.765625l0 9.015625zm12.677582 0l-0.734375 -1.875l-0.09375 0q-0.953125 1.1875 -1.96875 1.65625q-1.0 0.46875 -2.625 0.46875q-2.0 0 -3.140625 -1.140625q-1.140625 -1.140625 -1.140625 -3.234375q0 -2.203125 1.53125 -3.25q1.546875 -1.046875 4.65625 -1.15625l2.390625 -0.078125l0 -0.609375q0 -2.09375 -2.140625 -2.09375q-1.65625 0 -3.90625 1.0l-1.25 -2.546875q2.390625 -1.25 5.296875 -1.25q2.78125 0 4.265625 1.21875q1.484375 1.203125 1.484375 3.671875l0 9.21875l-2.625 0zm-1.125 -6.40625l-1.453125 0.046875q-1.640625 0.046875 -2.453125 0.59375q-0.796875 0.546875 -0.796875 1.65625q0 1.59375 1.828125 1.59375q1.3125 0 2.09375 -0.75q0.78125 -0.75 0.78125 -2.0l0 -1.140625zm13.454529 3.640625q1.0 0 2.375 -0.421875l0 2.796875q-1.40625 0.640625 -3.453125 0.640625q-2.265625 0 -3.296875 -1.140625q-1.03125 -1.15625 -1.03125 -3.4375l0 -6.671875l-1.8125 0l0 -1.59375l2.078125 -1.25l1.09375 -2.921875l2.40625 0l0 2.9375l3.875 0l0 2.828125l-3.875 0l0 6.671875q0 0.796875 0.453125 1.1875q0.453125 0.375 1.1875 0.375zm5.010132 -14.640625q0 -1.84375 2.0625 -1.84375q2.046875 0 2.046875 1.84375q0 0.890625 -0.515625 1.375q-0.515625 0.484375 -1.53125 0.484375q-2.0625 0 -2.0625 -1.859375zm3.9375 17.40625l-3.765625 0l0 -13.828125l3.765625 0l0 13.828125zm7.2451477 0l-5.265625 -13.828125l3.9375 0l2.671875 7.875q0.453125 1.5 0.5625 2.84375l0.078125 0q0.0625 -1.1875 0.546875 -2.84375l2.671875 -7.875l3.9375 0l-5.265625 13.828125l-3.875 0zm16.845367 -11.40625q-1.203125 0 -1.890625 0.765625q-0.671875 0.765625 -0.765625 2.15625l5.296875 0q-0.03125 -1.390625 -0.734375 -2.15625q-0.703125 -0.765625 -1.90625 -0.765625zm0.53125 11.65625q-3.34375 0 -5.21875 -1.84375q-1.875 -1.84375 -1.875 -5.21875q0 -3.484375 1.734375 -5.375q1.734375 -1.90625 4.8125 -1.90625q2.921875 0 4.546875 1.671875q1.640625 1.671875 1.640625 4.625l0 1.828125l-8.921875 0q0.0625 1.609375 0.953125 2.515625q0.890625 0.890625 2.5 0.890625q1.25 0 2.359375 -0.25q1.125 -0.265625 2.328125 -0.828125l0 2.90625q-0.984375 0.5 -2.109375 0.734375q-1.125 0.25 -2.75 0.25z" fill-rule="nonzero"/><path fill="#999999" d="m265.88126 215.8819l76.8819 0l0 60.81888l-76.8819 0z" fill-rule="evenodd"/><path fill="#000000" d="m288.81018 244.39883l-2.546875 0l0 8.8125l-1.515625 0l0 -8.8125l-1.78125 0l0 -0.671875l1.78125 -0.546875l0 -0.5625q0 -3.6875 3.21875 -3.6875q0.796875 0 1.859375 0.328125l-0.390625 1.203125q-0.875 -0.28125 -1.5 -0.28125q-0.859375 0 -1.265625 0.578125q-0.40625 0.5625 -0.40625 1.828125l0 0.640625l2.546875 0l0 1.171875zm6.368866 -1.359375q0.671875 0 1.1875 0.109375l-0.203125 1.40625q-0.625 -0.140625 -1.09375 -0.140625q-1.203125 0 -2.078125 0.984375q-0.859375 0.984375 -0.859375 2.453125l0 5.359375l-1.5 0l0 -9.984375l1.234375 0l0.1875 1.84375l0.0625 0q0.5625 -0.96875 1.34375 -1.5q0.78125 -0.53125 1.71875 -0.53125zm11.67804 5.171875q0 2.4375 -1.234375 3.8125q-1.21875 1.375 -3.390625 1.375q-1.34375 0 -2.390625 -0.625q-1.03125 -0.640625 -1.59375 -1.8125q-0.5625 -1.171875 -0.5625 -2.75q0 -2.4375 1.21875 -3.796875q1.21875 -1.375 3.390625 -1.375q2.09375 0 3.328125 1.40625q1.234375 1.390625 1.234375 3.765625zm-7.609375 0q0 1.90625 0.765625 2.921875q0.765625 1.0 2.25 1.0q1.484375 0 2.25 -1.0q0.78125 -1.0 0.78125 -2.921875q0 -1.90625 -0.78125 -2.890625q-0.765625 -0.984375 -2.265625 -0.984375q-1.484375 0 -2.25 0.96875q-0.75 0.96875 -0.75 2.90625zm17.096558 5.0l0 -6.453125q0 -1.21875 -0.5625 -1.8125q-0.546875 -0.609375 -1.734375 -0.609375q-1.5625 0 -2.296875 0.84375q-0.734375 0.84375 -0.734375 2.796875l0 5.234375l-1.5 0l0 -9.984375l1.21875 0l0.25 1.359375l0.078125 0q0.453125 -0.734375 1.296875 -1.140625q0.84375 -0.40625 1.875 -0.40625q1.796875 0 2.703125 0.875q0.921875 0.875 0.921875 2.78125l0 6.515625l-1.515625 0zm7.841278 -1.0625q0.40625 0 0.765625 -0.0625q0.375 -0.0625 0.59375 -0.125l0 1.15625q-0.234375 0.125 -0.71875 0.203125q-0.484375 0.078125 -0.859375 0.078125q-2.890625 0 -2.890625 -3.0625l0 -5.9375l-1.4375 0l0 -0.71875l1.4375 -0.640625l0.625 -2.125l0.875 0l0 2.3125l2.90625 0l0 1.171875l-2.90625 0l0 5.875q0 0.90625 0.421875 1.390625q0.4375 0.484375 1.1875 0.484375z" fill-rule="nonzero"/><path fill="#999999" d="m449.38257 215.8819l76.8819 0l0 60.81888l-76.8819 0z" fill-rule="evenodd"/><path fill="#000000" d="m473.8322 243.07071q1.96875 0 3.046875 1.34375q1.09375 1.34375 1.09375 3.796875q0 2.453125 -1.09375 3.828125q-1.09375 1.359375 -3.046875 1.359375q-0.96875 0 -1.78125 -0.359375q-0.8125 -0.359375 -1.359375 -1.109375l-0.109375 0l-0.3125 1.28125l-1.078125 0l0 -14.171875l1.5 0l0 3.4375q0 1.15625 -0.0625 2.078125l0.0625 0q1.0625 -1.484375 3.140625 -1.484375zm-0.21875 1.265625q-1.546875 0 -2.234375 0.890625q-0.6875 0.875 -0.6875 2.984375q0 2.109375 0.703125 3.015625q0.703125 0.90625 2.25 0.90625q1.390625 0 2.078125 -1.015625q0.6875 -1.015625 0.6875 -2.921875q0 -1.953125 -0.6875 -2.90625q-0.6875 -0.953125 -2.109375 -0.953125zm13.151154 8.875l-0.3125 -1.421875l-0.0625 0q-0.75 0.9375 -1.5 1.28125q-0.734375 0.328125 -1.84375 0.328125q-1.484375 0 -2.328125 -0.765625q-0.84375 -0.765625 -0.84375 -2.1875q0 -3.015625 4.828125 -3.171875l1.703125 -0.046875l0 -0.625q0 -1.171875 -0.515625 -1.734375q-0.5 -0.5625 -1.609375 -0.5625q-1.25 0 -2.828125 0.765625l-0.453125 -1.15625q0.734375 -0.390625 1.609375 -0.609375q0.875 -0.234375 1.765625 -0.234375q1.78125 0 2.640625 0.796875q0.859375 0.78125 0.859375 2.53125l0 6.8125l-1.109375 0zm-3.421875 -1.0625q1.40625 0 2.203125 -0.765625q0.8125 -0.78125 0.8125 -2.1875l0 -0.890625l-1.5 0.0625q-1.8125 0.0625 -2.609375 0.5625q-0.796875 0.484375 -0.796875 1.546875q0 0.8125 0.5 1.25q0.5 0.421875 1.390625 0.421875zm11.641357 1.25q-2.171875 0 -3.359375 -1.328125q-1.1875 -1.34375 -1.1875 -3.78125q0 -2.515625 1.203125 -3.875q1.21875 -1.375 3.4375 -1.375q0.71875 0 1.4375 0.15625q0.734375 0.15625 1.140625 0.375l-0.46875 1.28125q-0.5 -0.203125 -1.09375 -0.328125q-0.59375 -0.140625 -1.046875 -0.140625q-3.046875 0 -3.046875 3.875q0 1.84375 0.734375 2.828125q0.75 0.984375 2.21875 0.984375q1.25 0 2.546875 -0.53125l0 1.328125q-1.0 0.53125 -2.515625 0.53125zm6.3817444 -5.296875q0.390625 -0.5625 1.203125 -1.453125l3.21875 -3.421875l1.796875 0l-4.046875 4.25l4.328125 5.734375l-1.828125 0l-3.53125 -4.71875l-1.140625 0.984375l0 3.734375l-1.484375 0l0 -14.171875l1.484375 0l0 7.515625q0 0.5 -0.0625 1.546875l0.0625 0z" fill-rule="nonzero"/><path fill="#cfe2f3" d="m170.24803 140.88452l448.5039 0l0 45.66928l-448.5039 0z" fill-rule="evenodd"/><path fill="#ffffff" d="m320.30835 171.87381l0 -18.078125l3.828125 0l0 18.078125l-3.828125 0zm17.72876 -4.109375q0 2.125 -1.484375 3.25q-1.46875 1.109375 -4.421875 1.109375q-1.5 0 -2.5625 -0.203125q-1.0625 -0.203125 -2.0 -0.609375l0 -3.109375q1.0625 0.5 2.375 0.828125q1.3125 0.328125 2.3125 0.328125q2.0625 0 2.0625 -1.1875q0 -0.4375 -0.28125 -0.71875q-0.265625 -0.28125 -0.9375 -0.625q-0.671875 -0.359375 -1.78125 -0.828125q-1.59375 -0.671875 -2.34375 -1.234375q-0.75 -0.578125 -1.09375 -1.3125q-0.328125 -0.734375 -0.328125 -1.8125q0 -1.84375 1.421875 -2.84375q1.4375 -1.015625 4.046875 -1.015625q2.5 0 4.875 1.09375l-1.140625 2.71875q-1.046875 -0.4375 -1.953125 -0.71875q-0.890625 -0.296875 -1.84375 -0.296875q-1.65625 0 -1.65625 0.90625q0 0.515625 0.53125 0.890625q0.546875 0.359375 2.359375 1.09375q1.625 0.65625 2.375 1.234375q0.75 0.5625 1.109375 1.3125q0.359375 0.734375 0.359375 1.75zm8.761719 1.34375q1.0 0 2.375 -0.421875l0 2.796875q-1.40625 0.640625 -3.453125 0.640625q-2.265625 0 -3.296875 -1.140625q-1.03125 -1.15625 -1.03125 -3.4375l0 -6.671875l-1.8125 0l0 -1.59375l2.078125 -1.25l1.09375 -2.921875l2.40625 0l0 2.9375l3.875 0l0 2.828125l-3.875 0l0 6.671875q0 0.796875 0.453125 1.1875q0.453125 0.375 1.1875 0.375zm5.010132 -14.640625q0 -1.84375 2.0625 -1.84375q2.046875 0 2.046875 1.84375q0 0.890625 -0.515625 1.375q-0.515625 0.484375 -1.53125 0.484375q-2.0625 0 -2.0625 -1.859375zm3.9375 17.40625l-3.765625 0l0 -13.828125l3.765625 0l0 13.828125zm6.9638977 -6.9375q0 2.046875 0.671875 3.109375q0.671875 1.046875 2.203125 1.046875q1.5 0 2.15625 -1.046875q0.671875 -1.046875 0.671875 -3.109375q0 -2.046875 -0.671875 -3.078125q-0.671875 -1.03125 -2.1875 -1.03125q-1.515625 0 -2.1875 1.03125q-0.65625 1.015625 -0.65625 3.078125zm9.5625 0q0 3.375 -1.78125 5.28125q-1.78125 1.90625 -4.96875 1.90625q-1.984375 0 -3.515625 -0.875q-1.515625 -0.875 -2.328125 -2.5q-0.8125 -1.640625 -0.8125 -3.8125q0 -3.390625 1.765625 -5.265625q1.765625 -1.890625 4.96875 -1.890625q2.0 0 3.515625 0.875q1.515625 0.859375 2.328125 2.484375q0.828125 1.625 0.828125 3.796875zm9.995422 6.9375l0 -18.078125l3.828125 0l0 18.078125l-3.828125 0zm20.838135 0l-3.765625 0l0 -8.078125q0 -1.5 -0.53125 -2.234375q-0.53125 -0.75 -1.6875 -0.75q-1.59375 0 -2.296875 1.0625q-0.703125 1.046875 -0.703125 3.5l0 6.5l-3.765625 0l0 -13.828125l2.875 0l0.515625 1.765625l0.203125 0q0.625 -1.0 1.734375 -1.515625q1.109375 -0.515625 2.515625 -0.515625q2.421875 0 3.65625 1.3125q1.25 1.296875 1.25 3.765625l0 9.015625zm15.927551 -13.828125l0 1.921875l-2.171875 0.546875q0.59375 0.9375 0.59375 2.078125q0 2.234375 -1.546875 3.484375q-1.546875 1.234375 -4.3125 1.234375l-0.671875 -0.03125l-0.5625 -0.0625q-0.578125 0.4375 -0.578125 0.984375q0 0.8125 2.078125 0.8125l2.34375 0q2.28125 0 3.46875 0.984375q1.1875 0.96875 1.1875 2.859375q0 2.421875 -2.015625 3.75q-2.015625 1.34375 -5.8125 1.34375q-2.890625 0 -4.421875 -1.015625q-1.515625 -1.0 -1.515625 -2.8125q0 -1.25 0.765625 -2.09375q0.78125 -0.84375 2.296875 -1.1875q-0.578125 -0.25 -1.015625 -0.8125q-0.4375 -0.5625 -0.4375 -1.203125q0 -0.78125 0.453125 -1.3125q0.46875 -0.53125 1.328125 -1.03125q-1.078125 -0.46875 -1.71875 -1.5q-0.640625 -1.046875 -0.640625 -2.453125q0 -2.265625 1.46875 -3.5q1.484375 -1.25 4.21875 -1.25q0.578125 0 1.375 0.109375q0.796875 0.109375 1.015625 0.15625l4.828125 0zm-10.671875 15.78125q0 0.78125 0.734375 1.21875q0.75 0.453125 2.109375 0.453125q2.03125 0 3.171875 -0.5625q1.15625 -0.546875 1.15625 -1.515625q0 -0.78125 -0.6875 -1.078125q-0.671875 -0.296875 -2.09375 -0.296875l-1.953125 0q-1.046875 0 -1.75 0.484375q-0.6875 0.5 -0.6875 1.296875zm1.375 -11.25q0 1.125 0.5 1.78125q0.515625 0.65625 1.578125 0.65625q1.0625 0 1.546875 -0.65625q0.5 -0.65625 0.5 -1.78125q0 -2.5 -2.046875 -2.5q-2.078125 0 -2.078125 2.5zm19.293274 -4.796875q0.765625 0 1.265625 0.125l-0.28125 3.53125q-0.453125 -0.125 -1.109375 -0.125q-1.8125 0 -2.8280945 0.9375q-1.0 0.921875 -1.0 2.59375l0 7.03125l-3.765625 0l0 -13.828125l2.84375 0l0.5625 2.328125l0.1875 0q0.640625 -1.171875 1.7343445 -1.875q1.09375 -0.71875 2.390625 -0.71875zm9.501556 2.6875q-1.203125 0 -1.890625 0.765625q-0.671875 0.765625 -0.765625 2.15625l5.296875 0q-0.03125 -1.390625 -0.734375 -2.15625q-0.703125 -0.765625 -1.90625 -0.765625zm0.53125 11.65625q-3.34375 0 -5.21875 -1.84375q-1.875 -1.84375 -1.875 -5.21875q0 -3.484375 1.734375 -5.375q1.734375 -1.90625 4.8125 -1.90625q2.921875 0 4.546875 1.671875q1.640625 1.671875 1.640625 4.625l0 1.828125l-8.921875 0q0.0625 1.609375 0.953125 2.515625q0.890625 0.890625 2.5 0.890625q1.25 0 2.359375 -0.25q1.125 -0.265625 2.328125 -0.828125l0 2.90625q-0.984375 0.5 -2.109375 0.734375q-1.125 0.25 -2.75 0.25zm18.355011 -4.359375q0 2.125 -1.484375 3.25q-1.46875 1.109375 -4.421875 1.109375q-1.5 0 -2.5625 -0.203125q-1.0625 -0.203125 -2.0 -0.609375l0 -3.109375q1.0625 0.5 2.375 0.828125q1.3125 0.328125 2.3125 0.328125q2.0625 0 2.0625 -1.1875q0 -0.4375 -0.28125 -0.71875q-0.265625 -0.28125 -0.9375 -0.625q-0.671875 -0.359375 -1.78125 -0.828125q-1.59375 -0.671875 -2.34375 -1.234375q-0.75 -0.578125 -1.09375 -1.3125q-0.328125 -0.734375 -0.328125 -1.8125q0 -1.84375 1.421875 -2.84375q1.4375 -1.015625 4.046875 -1.015625q2.5 0 4.875 1.09375l-1.140625 2.71875q-1.046875 -0.4375 -1.953125 -0.71875q-0.890625 -0.296875 -1.84375 -0.296875q-1.65625 0 -1.65625 0.90625q0 0.515625 0.53125 0.890625q0.546875 0.359375 2.359375 1.09375q1.625 0.65625 2.375 1.234375q0.75 0.5625 1.109375 1.3125q0.359375 0.734375 0.359375 1.75zm12.589844 0q0 2.125 -1.484375 3.25q-1.46875 1.109375 -4.421875 1.109375q-1.5 0 -2.5625 -0.203125q-1.0625 -0.203125 -2.0 -0.609375l0 -3.109375q1.0625 0.5 2.375 0.828125q1.3125 0.328125 2.3125 0.328125q2.0625 0 2.0625 -1.1875q0 -0.4375 -0.28125 -0.71875q-0.265625 -0.28125 -0.9375 -0.625q-0.671875 -0.359375 -1.78125 -0.828125q-1.59375 -0.671875 -2.34375 -1.234375q-0.75 -0.578125 -1.09375 -1.3125q-0.328125 -0.734375 -0.328125 -1.8125q0 -1.84375 1.421875 -2.84375q1.4375 -1.015625 4.046875 -1.015625q2.5 0 4.875 1.09375l-1.140625 2.71875q-1.046875 -0.4375 -1.953125 -0.71875q-0.890625 -0.296875 -1.84375 -0.296875q-1.65625 0 -1.65625 0.90625q0 0.515625 0.53125 0.890625q0.546875 0.359375 2.359375 1.09375q1.625 0.65625 2.375 1.234375q0.75 0.5625 1.109375 1.3125q0.359375 0.734375 0.359375 1.75z" fill-rule="nonzero"/><path fill="#000000" fill-opacity="0.0" d="m304.3222 65.708664l0 150.17323" fill-rule="evenodd"/><path stroke="#000000" stroke-width="1.0" stroke-linejoin="round" stroke-linecap="butt" d="m304.3222 65.708664l0 144.17323" fill-rule="evenodd"/><path fill="#000000" stroke="#000000" stroke-width="1.0" stroke-linecap="butt" d="m302.67047 209.8819l1.6517334 4.538086l1.6517334 -4.538086z" fill-rule="evenodd"/><path fill="#000000" fill-opacity="0.0" d="m342.76315 246.29134l106.61417 0" fill-rule="evenodd"/><path stroke="#000000" stroke-width="1.0" stroke-linejoin="round" stroke-linecap="butt" d="m342.76315 246.29134l100.614136 0" fill-rule="evenodd"/><path fill="#000000" stroke="#000000" stroke-width="1.0" stroke-linecap="butt" d="m443.3773 247.94307l4.5381165 -1.6517334l-4.5381165 -1.6517334z" fill-rule="evenodd"/><path fill="#000000" fill-opacity="0.0" d="m187.66011 16.88189l233.32283 0l0 20.850395l-233.32283 0z" fill-rule="evenodd"/><path fill="#000000" d="m230.62254 33.36771l-0.984375 1.0l-6.125 -5.109375l6.125 -5.109375l0.984375 1.015625l-4.96875 4.078125l4.96875 4.125zm6.4760437 -6.96875l-2.703125 0l0 -1.3125l4.296875 0l0 7.8125l2.734375 0l0 1.328125l-7.34375 0l0 -1.328125l3.015625 0l0 -6.5zm0.546875 -5.15625q0.265625 0 0.484375 0.09375q0.234375 0.09375 0.40625 0.28125q0.171875 0.171875 0.265625 0.390625q0.09375 0.21875 0.09375 0.484375q0 0.25 -0.09375 0.484375q-0.09375 0.234375 -0.265625 0.40625q-0.171875 0.171875 -0.40625 0.265625q-0.21875 0.09375 -0.484375 0.09375q-0.265625 0 -0.5 -0.09375q-0.21875 -0.09375 -0.390625 -0.265625q-0.15625 -0.171875 -0.265625 -0.40625q-0.09375 -0.234375 -0.09375 -0.484375q0 -0.265625 0.09375 -0.484375q0.109375 -0.21875 0.265625 -0.390625q0.171875 -0.1875 0.390625 -0.28125q0.234375 -0.09375 0.5 -0.09375zm13.835419 10.484375q0 0.484375 -0.171875 0.875q-0.15625 0.375 -0.4375 0.671875q-0.28125 0.296875 -0.65625 0.515625q-0.375 0.203125 -0.796875 0.34375q-0.421875 0.125 -0.875 0.1875q-0.453125 0.0625 -0.875 0.0625q-0.921875 0 -1.703125 -0.078125q-0.78125 -0.078125 -1.53125 -0.265625l0 -1.453125q0.796875 0.234375 1.59375 0.359375q0.796875 0.109375 1.578125 0.109375q1.140625 0 1.6875 -0.3125q0.546875 -0.3125 0.546875 -0.890625q0 -0.234375 -0.09375 -0.421875q-0.078125 -0.203125 -0.3125 -0.375q-0.21875 -0.1875 -0.703125 -0.375q-0.484375 -0.203125 -1.3125 -0.4375q-0.609375 -0.1875 -1.140625 -0.421875q-0.515625 -0.234375 -0.90625 -0.546875q-0.375 -0.328125 -0.59375 -0.75q-0.21875 -0.421875 -0.21875 -1.015625q0 -0.375 0.171875 -0.828125q0.171875 -0.453125 0.59375 -0.84375q0.4375 -0.40625 1.171875 -0.65625q0.734375 -0.265625 1.8125 -0.265625q0.546875 0 1.203125 0.0625q0.65625 0.0625 1.359375 0.203125l0 1.40625q-0.75 -0.171875 -1.421875 -0.25q-0.65625 -0.09375 -1.15625 -0.09375q-0.59375 0 -1.0 0.09375q-0.390625 0.078125 -0.65625 0.25q-0.25 0.15625 -0.359375 0.375q-0.109375 0.203125 -0.109375 0.453125q0 0.25 0.09375 0.453125q0.109375 0.1875 0.359375 0.375q0.265625 0.1875 0.71875 0.375q0.46875 0.1875 1.21875 0.40625q0.8125 0.234375 1.359375 0.5q0.5625 0.25 0.90625 0.578125q0.359375 0.3125 0.5 0.71875q0.15625 0.40625 0.15625 0.90625zm10.382309 2.375q-0.53125 0.140625 -1.109375 0.1875q-0.578125 0.0625 -1.171875 0.0625q-1.71875 0 -2.5625 -0.78125q-0.84375 -0.78125 -0.84375 -2.390625l0 -4.765625l-2.5625153 0l0 -1.328125l2.5625153 0l0 -2.515625l1.578125 -0.40625l0 2.921875l4.109375 0l0 1.328125l-4.109375 0l0 4.640625q0 0.984375 0.515625 1.46875q0.53125 0.484375 1.546875 0.484375q0.4375 0 0.953125 -0.0625q0.53125 -0.0625 1.09375 -0.21875l0 1.375zm6.0072937 -7.703125l-2.703125 0l0 -1.3125l4.296875 0l0 7.8125l2.734375 0l0 1.328125l-7.34375 0l0 -1.328125l3.015625 0l0 -6.5zm0.546875 -5.15625q0.265625 0 0.484375 0.09375q0.234375 0.09375 0.40625 0.28125q0.171875 0.171875 0.265625 0.390625q0.09375 0.21875 0.09375 0.484375q0 0.25 -0.09375 0.484375q-0.09375 0.234375 -0.265625 0.40625q-0.171875 0.171875 -0.40625 0.265625q-0.21875 0.09375 -0.484375 0.09375q-0.265625 0 -0.5 -0.09375q-0.21875 -0.09375 -0.390625 -0.265625q-0.15625 -0.171875 -0.265625 -0.40625q-0.09375 -0.234375 -0.09375 -0.484375q0 -0.265625 0.09375 -0.484375q0.109375 -0.21875 0.265625 -0.390625q0.171875 -0.1875 0.390625 -0.28125q0.234375 -0.09375 0.5 -0.09375zm14.554169 8.34375q0 1.0625 -0.3125 1.953125q-0.296875 0.890625 -0.859375 1.53125q-0.5625 0.625 -1.375 0.96875q-0.8125 0.34375 -1.84375 0.34375q-0.984375 0 -1.765625 -0.296875q-0.765625 -0.3125 -1.3125 -0.890625q-0.546875 -0.59375 -0.828125 -1.46875q-0.28125 -0.875 -0.28125 -2.015625q0 -1.0625 0.296875 -1.9375q0.296875 -0.890625 0.859375 -1.515625q0.5625 -0.640625 1.375 -0.984375q0.8125 -0.359375 1.84375 -0.359375q0.984375 0 1.765625 0.3125q0.78125 0.296875 1.3125 0.890625q0.546875 0.578125 0.828125 1.453125q0.296875 0.875 0.296875 2.015625zm-1.625 0.0625q0 -0.84375 -0.1875 -1.46875q-0.1875 -0.640625 -0.53125 -1.0625q-0.34375 -0.421875 -0.84375 -0.640625q-0.5 -0.21875 -1.109375 -0.21875q-0.703125 0 -1.21875 0.28125q-0.5 0.28125 -0.828125 0.75q-0.3125 0.453125 -0.46875 1.078125q-0.15625 0.609375 -0.15625 1.28125q0 0.859375 0.1875 1.5q0.1875 0.625 0.53125 1.046875q0.359375 0.421875 0.84375 0.640625q0.5 0.21875 1.109375 0.21875q0.71875 0 1.21875 -0.28125q0.5 -0.28125 0.828125 -0.734375q0.328125 -0.46875 0.46875 -1.078125q0.15625 -0.625 0.15625 -1.3125zm10.319794 0.359375l-5.453125 0l0 -1.5l5.453125 0l0 1.5zm6.9760437 -3.609375l-2.703125 0l0 -1.3125l4.296875 0l0 7.8125l2.734375 0l0 1.328125l-7.34375 0l0 -1.328125l3.015625 0l0 -6.5zm0.546875 -5.15625q0.265625 0 0.484375 0.09375q0.234375 0.09375 0.40625 0.28125q0.171875 0.171875 0.265625 0.390625q0.09375 0.21875 0.09375 0.484375q0 0.25 -0.09375 0.484375q-0.09375 0.234375 -0.265625 0.40625q-0.171875 0.171875 -0.40625 0.265625q-0.21875 0.09375 -0.484375 0.09375q-0.265625 0 -0.5 -0.09375q-0.21875 -0.09375 -0.390625 -0.265625q-0.15625 -0.171875 -0.265625 -0.40625q-0.09375 -0.234375 -0.09375 -0.484375q0 -0.265625 0.09375 -0.484375q0.109375 -0.21875 0.265625 -0.390625q0.171875 -0.1875 0.390625 -0.28125q0.234375 -0.09375 0.5 -0.09375zm6.5854187 3.84375l1.421875 0l0.0625 1.46875q0.390625 -0.46875 0.765625 -0.78125q0.375 -0.3125 0.734375 -0.5q0.359375 -0.203125 0.734375 -0.28125q0.375 -0.078125 0.78125 -0.078125q1.40625 0 2.125 0.84375q0.734375 0.828125 0.734375 2.5l0 5.96875l-1.59375 0l0 -5.84375q0 -1.078125 -0.40625 -1.578125q-0.390625 -0.515625 -1.1875 -0.515625q-0.28125 0 -0.5625 0.09375q-0.28125 0.078125 -0.578125 0.296875q-0.296875 0.203125 -0.65625 0.578125q-0.34375 0.359375 -0.78125 0.90625l0 6.0625l-1.59375 0l0 -9.140625zm16.851013 1.28125q0.25 0.328125 0.390625 0.75q0.140625 0.421875 0.140625 0.921875q0 0.703125 -0.265625 1.296875q-0.25 0.578125 -0.734375 1.0q-0.46875 0.421875 -1.125 0.65625q-0.65625 0.234375 -1.453125 0.234375q-0.578125 0 -1.078125 -0.125q-0.5 -0.125 -0.78125 -0.3125q-0.1875 0.265625 -0.3125 0.5q-0.109375 0.21875 -0.109375 0.5q0 0.34375 0.328125 0.578125q0.34375 0.21875 0.890625 0.234375l2.40625 0.09375q0.671875 0.015625 1.25 0.171875q0.59375 0.15625 1.0 0.453125q0.421875 0.28125 0.640625 0.71875q0.234375 0.421875 0.234375 0.984375q0 0.609375 -0.265625 1.15625q-0.25 0.546875 -0.8125 0.953125q-0.546875 0.421875 -1.390625 0.671875q-0.84375 0.25 -2.015625 0.25q-1.109375 0 -1.890625 -0.1875q-0.78125 -0.171875 -1.28125 -0.484375q-0.5 -0.3125 -0.7343445 -0.75q-0.21875 -0.421875 -0.21875 -0.953125q0 -0.65625 0.29684448 -1.15625q0.3125 -0.5 0.96875 -0.96875q-0.234375 -0.109375 -0.40625 -0.265625q-0.171875 -0.171875 -0.28125 -0.359375q-0.109375 -0.203125 -0.171875 -0.421875q-0.046875 -0.21875 -0.046875 -0.4375q0 -0.578125 0.265625 -1.0625q0.28125 -0.5 0.671875 -0.9375q-0.171875 -0.21875 -0.3125 -0.40625q-0.125 -0.203125 -0.234375 -0.4375q-0.09375 -0.234375 -0.140625 -0.5q-0.046875 -0.28125 -0.046875 -0.625q0 -0.703125 0.25 -1.28125q0.265625 -0.59375 0.734375 -1.015625q0.46875 -0.421875 1.125 -0.65625q0.671875 -0.234375 1.46875 -0.234375q0.34375 0 0.640625 0.046875q0.3125 0.046875 0.546875 0.125l3.328125 0l0 1.28125l-1.46875 0zm-5.5 9.1875q0 0.640625 0.671875 0.9375q0.671875 0.296875 1.875 0.296875q0.75 0 1.265625 -0.140625q0.515625 -0.140625 0.828125 -0.359375q0.3125 -0.21875 0.453125 -0.515625q0.140625 -0.28125 0.140625 -0.578125q0 -0.5625 -0.453125 -0.828125q-0.453125 -0.265625 -1.390625 -0.296875l-2.390625 -0.09375q-0.296875 0.203125 -0.5 0.390625q-0.203125 0.203125 -0.3125 0.390625q-0.109375 0.203125 -0.15625 0.390625q-0.03125 0.203125 -0.03125 0.40625zm0.484375 -7.484375q0 0.4375 0.140625 0.8125q0.140625 0.359375 0.40625 0.609375q0.265625 0.25 0.625 0.390625q0.359375 0.140625 0.796875 0.140625q0.46875 0 0.84375 -0.15625q0.375 -0.15625 0.625 -0.421875q0.25 -0.28125 0.375 -0.640625q0.140625 -0.359375 0.140625 -0.734375q0 -0.4375 -0.15625 -0.796875q-0.140625 -0.375 -0.40625 -0.625q-0.265625 -0.25 -0.625 -0.390625q-0.359375 -0.140625 -0.796875 -0.140625q-0.46875 0 -0.84375 0.171875q-0.359375 0.15625 -0.625 0.421875q-0.25 0.265625 -0.375 0.625q-0.125 0.34375 -0.125 0.734375zm9.054169 -2.984375l1.453125 0l0.046875 1.6875q0.8125 -0.984375 1.59375 -1.421875q0.796875 -0.4375 1.59375 -0.4375q1.421875 0 2.15625 0.921875q0.734375 0.921875 0.671875 2.734375l-1.59375 0q0.015625 -1.203125 -0.359375 -1.734375q-0.375 -0.546875 -1.109375 -0.546875q-0.3125 0 -0.640625 0.109375q-0.328125 0.109375 -0.671875 0.359375q-0.328125 0.25 -0.71875 0.640625q-0.375 0.390625 -0.8125 0.953125l0 5.875l-1.609375 0l0 -9.140625zm17.616669 4.078125q0 0.34375 -0.015625 0.578125q0 0.21875 -0.03125 0.421875l-6.421875 0q0 1.40625 0.78125 2.15625q0.796875 0.75 2.265625 0.75q0.40625 0 0.796875 -0.03125q0.40625 -0.03125 0.78125 -0.078125q0.375 -0.0625 0.71875 -0.125q0.34375 -0.078125 0.625 -0.15625l0 1.296875q-0.640625 0.1875 -1.46875 0.296875q-0.8125 0.109375 -1.6875 0.109375q-1.171875 0 -2.015625 -0.3125q-0.84375 -0.3125 -1.390625 -0.921875q-0.546875 -0.609375 -0.8125 -1.484375q-0.25 -0.875 -0.25 -2.0q0 -0.953125 0.28125 -1.8125q0.28125 -0.859375 0.8125 -1.515625q0.53125 -0.65625 1.296875 -1.03125q0.78125 -0.390625 1.765625 -0.390625q0.953125 0 1.6875 0.3125q0.75 0.296875 1.25 0.84375q0.5 0.546875 0.765625 1.34375q0.265625 0.78125 0.265625 1.75zm-1.65625 -0.21875q0.03125 -0.609375 -0.125 -1.109375q-0.140625 -0.515625 -0.453125 -0.875q-0.296875 -0.375 -0.75 -0.578125q-0.453125 -0.203125 -1.0625 -0.203125q-0.515625 0 -0.953125 0.203125q-0.421875 0.203125 -0.734375 0.5625q-0.296875 0.359375 -0.5 0.875q-0.1875 0.515625 -0.234375 1.125l4.8125 0zm11.429169 2.78125q0 0.484375 -0.171875 0.875q-0.15625 0.375 -0.4375 0.671875q-0.28125 0.296875 -0.65625 0.515625q-0.375 0.203125 -0.796875 0.34375q-0.421875 0.125 -0.875 0.1875q-0.453125 0.0625 -0.875 0.0625q-0.921875 0 -1.703125 -0.078125q-0.78125 -0.078125 -1.53125 -0.265625l0 -1.453125q0.796875 0.234375 1.59375 0.359375q0.796875 0.109375 1.578125 0.109375q1.140625 0 1.6875 -0.3125q0.546875 -0.3125 0.546875 -0.890625q0 -0.234375 -0.09375 -0.421875q-0.078125 -0.203125 -0.3125 -0.375q-0.21875 -0.1875 -0.703125 -0.375q-0.484375 -0.203125 -1.3125 -0.4375q-0.609375 -0.1875 -1.140625 -0.421875q-0.515625 -0.234375 -0.90625 -0.546875q-0.375 -0.328125 -0.59375 -0.75q-0.21875 -0.421875 -0.21875 -1.015625q0 -0.375 0.171875 -0.828125q0.171875 -0.453125 0.59375 -0.84375q0.4375 -0.40625 1.171875 -0.65625q0.734375 -0.265625 1.8125 -0.265625q0.546875 0 1.203125 0.0625q0.65625 0.0625 1.359375 0.203125l0 1.40625q-0.75 -0.171875 -1.421875 -0.25q-0.65625 -0.09375 -1.15625 -0.09375q-0.59375 0 -1.0 0.09375q-0.390625 0.078125 -0.65625 0.25q-0.25 0.15625 -0.359375 0.375q-0.109375 0.203125 -0.109375 0.453125q0 0.25 0.09375 0.453125q0.109375 0.1875 0.359375 0.375q0.265625 0.1875 0.71875 0.375q0.46875 0.1875 1.21875 0.40625q0.8125 0.234375 1.359375 0.5q0.5625 0.25 0.90625 0.578125q0.359375 0.3125 0.5 0.71875q0.15625 0.40625 0.15625 0.90625zm10.257294 0q0 0.484375 -0.171875 0.875q-0.15625 0.375 -0.4375 0.671875q-0.28125 0.296875 -0.65625 0.515625q-0.375 0.203125 -0.796875 0.34375q-0.421875 0.125 -0.875 0.1875q-0.453125 0.0625 -0.875 0.0625q-0.921875 0 -1.703125 -0.078125q-0.78125 -0.078125 -1.53125 -0.265625l0 -1.453125q0.796875 0.234375 1.59375 0.359375q0.796875 0.109375 1.578125 0.109375q1.140625 0 1.6875 -0.3125q0.546875 -0.3125 0.546875 -0.890625q0 -0.234375 -0.09375 -0.421875q-0.078125 -0.203125 -0.3125 -0.375q-0.21875 -0.1875 -0.703125 -0.375q-0.484375 -0.203125 -1.3125 -0.4375q-0.609375 -0.1875 -1.140625 -0.421875q-0.515625 -0.234375 -0.90625 -0.546875q-0.375 -0.328125 -0.59375 -0.75q-0.21875 -0.421875 -0.21875 -1.015625q0 -0.375 0.171875 -0.828125q0.171875 -0.453125 0.59375 -0.84375q0.4375 -0.40625 1.171875 -0.65625q0.734375 -0.265625 1.8125 -0.265625q0.546875 0 1.203125 0.0625q0.65625 0.0625 1.359375 0.203125l0 1.40625q-0.75 -0.171875 -1.421875 -0.25q-0.65625 -0.09375 -1.15625 -0.09375q-0.59375 0 -1.0 0.09375q-0.390625 0.078125 -0.65625 0.25q-0.25 0.15625 -0.359375 0.375q-0.109375 0.203125 -0.109375 0.453125q0 0.25 0.09375 0.453125q0.109375 0.1875 0.359375 0.375q0.265625 0.1875 0.71875 0.375q0.46875 0.1875 1.21875 0.40625q0.8125 0.234375 1.359375 0.5q0.5625 0.25 0.90625 0.578125q0.359375 0.3125 0.5 0.71875q0.15625 0.40625 0.15625 0.90625zm3.4604187 -6.5625l0.984375 -1.015625l6.125 5.109375l-6.125 5.109375l-0.984375 -1.0l4.96875 -4.09375l-4.96875 -4.109375z" fill-rule="nonzero"/><path fill="#000000" d="m378.93506 36.18021l-2.15625 0l6.359375 -14.828125l2.171875 0l-6.375 14.828125z" fill-rule="nonzero"/><path fill="#000000" fill-opacity="0.0" d="m187.66011 41.299213l233.32283 0l0 20.850391l-233.32283 0z" fill-rule="evenodd"/><path fill="#000000" d="m210.10796 57.785034l-0.984375 1.0l-6.125 -5.109375l6.125 -5.109375l0.984375 1.015625l-4.96875 4.078125l4.96875 4.125zm6.4760437 -6.96875l-2.703125 0l0 -1.3125l4.296875 0l0 7.8125l2.734375 0l0 1.328125l-7.34375 0l0 -1.328125l3.015625 0l0 -6.5zm0.546875 -5.15625q0.265625 0 0.484375 0.09375q0.234375 0.09375 0.40625 0.28125q0.171875 0.171875 0.265625 0.390625q0.09375 0.21875 0.09375 0.484375q0 0.25 -0.09375 0.484375q-0.09375 0.234375 -0.265625 0.40625q-0.171875 0.171875 -0.40625 0.265625q-0.21875 0.09375 -0.484375 0.09375q-0.265625 0 -0.5 -0.09375q-0.21875 -0.09375 -0.390625 -0.265625q-0.15625 -0.171875 -0.265625 -0.40625q-0.09375 -0.234375 -0.09375 -0.484375q0 -0.265625 0.09375 -0.484375q0.109375 -0.21875 0.265625 -0.390625q0.171875 -0.1875 0.390625 -0.28125q0.234375 -0.09375 0.5 -0.09375zm13.835419 10.484375q0 0.484375 -0.171875 0.875q-0.15625 0.375 -0.4375 0.671875q-0.28125 0.296875 -0.65625 0.515625q-0.375 0.203125 -0.796875 0.34375q-0.421875 0.125 -0.875 0.1875q-0.453125 0.0625 -0.875 0.0625q-0.921875 0 -1.703125 -0.078125q-0.78125 -0.078125 -1.53125 -0.265625l0 -1.453125q0.796875 0.234375 1.59375 0.359375q0.796875 0.109375 1.578125 0.109375q1.140625 0 1.6875 -0.3125q0.546875 -0.3125 0.546875 -0.890625q0 -0.234375 -0.09375 -0.421875q-0.078125 -0.203125 -0.3125 -0.375q-0.21875 -0.1875 -0.703125 -0.375q-0.484375 -0.203125 -1.3125 -0.4375q-0.609375 -0.1875 -1.140625 -0.421875q-0.515625 -0.234375 -0.90625 -0.546875q-0.375 -0.328125 -0.59375 -0.75q-0.21875 -0.421875 -0.21875 -1.015625q0 -0.375 0.171875 -0.828125q0.171875 -0.453125 0.59375 -0.84375q0.4375 -0.40625 1.171875 -0.65625q0.734375 -0.265625 1.8125 -0.265625q0.546875 0 1.203125 0.0625q0.65625 0.0625 1.359375 0.203125l0 1.40625q-0.75 -0.171875 -1.421875 -0.25q-0.65625 -0.09375 -1.15625 -0.09375q-0.59375 0 -1.0 0.09375q-0.390625 0.078125 -0.65625 0.25q-0.25 0.15625 -0.359375 0.375q-0.109375 0.203125 -0.109375 0.453125q0 0.25 0.09375 0.453125q0.109375 0.1875 0.359375 0.375q0.265625 0.1875 0.71875 0.375q0.46875 0.1875 1.21875 0.40625q0.8125 0.234375 1.359375 0.5q0.5625 0.25 0.90625 0.578125q0.359375 0.3125 0.5 0.71875q0.15625 0.40625 0.15625 0.90625zm10.382294 2.375q-0.53125 0.140625 -1.109375 0.1875q-0.578125 0.0625 -1.171875 0.0625q-1.71875 0 -2.5625 -0.78125q-0.84375 -0.78125 -0.84375 -2.390625l0 -4.765625l-2.5625 0l0 -1.328125l2.5625 0l0 -2.515625l1.578125 -0.40625l0 2.921875l4.109375 0l0 1.328125l-4.109375 0l0 4.640625q0 0.984375 0.515625 1.46875q0.53125 0.484375 1.546875 0.484375q0.4375 0 0.953125 -0.0625q0.53125 -0.0625 1.09375 -0.21875l0 1.375zm6.0072937 -7.703125l-2.703125 0l0 -1.3125l4.296875 0l0 7.8125l2.734375 0l0 1.328125l-7.34375 0l0 -1.328125l3.015625 0l0 -6.5zm0.546875 -5.15625q0.265625 0 0.484375 0.09375q0.234375 0.09375 0.40625 0.28125q0.171875 0.171875 0.265625 0.390625q0.09375 0.21875 0.09375 0.484375q0 0.25 -0.09375 0.484375q-0.09375 0.234375 -0.265625 0.40625q-0.171875 0.171875 -0.40625 0.265625q-0.21875 0.09375 -0.484375 0.09375q-0.265625 0 -0.5 -0.09375q-0.21875 -0.09375 -0.390625 -0.265625q-0.15625 -0.171875 -0.265625 -0.40625q-0.09375 -0.234375 -0.09375 -0.484375q0 -0.265625 0.09375 -0.484375q0.109375 -0.21875 0.265625 -0.390625q0.171875 -0.1875 0.390625 -0.28125q0.234375 -0.09375 0.5 -0.09375zm14.554184 8.34375q0 1.0625 -0.3125 1.953125q-0.296875 0.890625 -0.859375 1.53125q-0.5625 0.625 -1.375 0.96875q-0.8125 0.34375 -1.84375 0.34375q-0.984375 0 -1.765625 -0.296875q-0.76564026 -0.3125 -1.3125153 -0.890625q-0.546875 -0.59375 -0.828125 -1.46875q-0.28125 -0.875 -0.28125 -2.015625q0 -1.0625 0.296875 -1.9375q0.296875 -0.890625 0.859375 -1.515625q0.5625 -0.640625 1.3750153 -0.984375q0.8125 -0.359375 1.84375 -0.359375q0.984375 0 1.765625 0.3125q0.78125 0.296875 1.3125 0.890625q0.546875 0.578125 0.828125 1.453125q0.296875 0.875 0.296875 2.015625zm-1.625 0.0625q0 -0.84375 -0.1875 -1.46875q-0.1875 -0.640625 -0.53125 -1.0625q-0.34375 -0.421875 -0.84375 -0.640625q-0.5 -0.21875 -1.109375 -0.21875q-0.703125 0 -1.21875 0.28125q-0.5 0.28125 -0.828125 0.75q-0.31251526 0.453125 -0.46876526 1.078125q-0.15625 0.609375 -0.15625 1.28125q0 0.859375 0.1875 1.5q0.1875 0.625 0.53126526 1.046875q0.359375 0.421875 0.84375 0.640625q0.5 0.21875 1.109375 0.21875q0.71875 0 1.21875 -0.28125q0.5 -0.28125 0.828125 -0.734375q0.328125 -0.46875 0.46875 -1.078125q0.15625 -0.625 0.15625 -1.3125zm10.319794 0.359375l-5.453125 0l0 -1.5l5.453125 0l0 1.5zm6.9760437 -3.609375l-2.703125 0l0 -1.3125l4.296875 0l0 7.8125l2.734375 0l0 1.328125l-7.34375 0l0 -1.328125l3.015625 0l0 -6.5zm0.546875 -5.15625q0.265625 0 0.484375 0.09375q0.234375 0.09375 0.40625 0.28125q0.171875 0.171875 0.265625 0.390625q0.09375 0.21875 0.09375 0.484375q0 0.25 -0.09375 0.484375q-0.09375 0.234375 -0.265625 0.40625q-0.171875 0.171875 -0.40625 0.265625q-0.21875 0.09375 -0.484375 0.09375q-0.265625 0 -0.5 -0.09375q-0.21875 -0.09375 -0.390625 -0.265625q-0.15625 -0.171875 -0.265625 -0.40625q-0.09375 -0.234375 -0.09375 -0.484375q0 -0.265625 0.09375 -0.484375q0.109375 -0.21875 0.265625 -0.390625q0.171875 -0.1875 0.390625 -0.28125q0.234375 -0.09375 0.5 -0.09375zm6.5854187 3.84375l1.421875 0l0.0625 1.46875q0.390625 -0.46875 0.765625 -0.78125q0.375 -0.3125 0.734375 -0.5q0.359375 -0.203125 0.734375 -0.28125q0.375 -0.078125 0.78125 -0.078125q1.40625 0 2.125 0.84375q0.734375 0.828125 0.734375 2.5l0 5.96875l-1.59375 0l0 -5.84375q0 -1.078125 -0.40625 -1.578125q-0.390625 -0.515625 -1.1875 -0.515625q-0.28125 0 -0.5625 0.09375q-0.28125 0.078125 -0.578125 0.296875q-0.296875 0.203125 -0.65625 0.578125q-0.34375 0.359375 -0.78125 0.90625l0 6.0625l-1.59375 0l0 -9.140625zm16.851044 1.28125q0.25 0.328125 0.390625 0.75q0.140625 0.421875 0.140625 0.921875q0 0.703125 -0.265625 1.296875q-0.25 0.578125 -0.734375 1.0q-0.46875 0.421875 -1.125 0.65625q-0.65625 0.234375 -1.453125 0.234375q-0.578125 0 -1.078125 -0.125q-0.5 -0.125 -0.78125 -0.3125q-0.1875 0.265625 -0.3125 0.5q-0.109375 0.21875 -0.109375 0.5q0 0.34375 0.328125 0.578125q0.34375 0.21875 0.890625 0.234375l2.40625 0.09375q0.671875 0.015625 1.25 0.171875q0.59375 0.15625 1.0 0.453125q0.421875 0.28125 0.640625 0.71875q0.234375 0.421875 0.234375 0.984375q0 0.609375 -0.265625 1.15625q-0.25 0.546875 -0.8125 0.953125q-0.546875 0.421875 -1.390625 0.671875q-0.84375 0.25 -2.015625 0.25q-1.109375 0 -1.890625 -0.1875q-0.78125 -0.171875 -1.28125 -0.484375q-0.5 -0.3125 -0.734375 -0.75q-0.21875 -0.421875 -0.21875 -0.953125q0 -0.65625 0.296875 -1.15625q0.3125 -0.5 0.96875 -0.96875q-0.234375 -0.109375 -0.40625 -0.265625q-0.171875 -0.171875 -0.28125 -0.359375q-0.109375 -0.203125 -0.171875 -0.421875q-0.046875 -0.21875 -0.046875 -0.4375q0 -0.578125 0.265625 -1.0625q0.28125 -0.5 0.671875 -0.9375q-0.171875 -0.21875 -0.3125 -0.40625q-0.125 -0.203125 -0.234375 -0.4375q-0.09375 -0.234375 -0.140625 -0.5q-0.046875 -0.28125 -0.046875 -0.625q0 -0.703125 0.25 -1.28125q0.265625 -0.59375 0.734375 -1.015625q0.46875 -0.421875 1.125 -0.65625q0.671875 -0.234375 1.46875 -0.234375q0.34375 0 0.640625 0.046875q0.3125 0.046875 0.546875 0.125l3.328125 0l0 1.28125l-1.46875 0zm-5.5 9.1875q0 0.640625 0.671875 0.9375q0.671875 0.296875 1.875 0.296875q0.75 0 1.265625 -0.140625q0.515625 -0.140625 0.828125 -0.359375q0.3125 -0.21875 0.453125 -0.515625q0.140625 -0.28125 0.140625 -0.578125q0 -0.5625 -0.453125 -0.828125q-0.453125 -0.265625 -1.390625 -0.296875l-2.390625 -0.09375q-0.296875 0.203125 -0.5 0.390625q-0.203125 0.203125 -0.3125 0.390625q-0.109375 0.203125 -0.15625 0.390625q-0.03125 0.203125 -0.03125 0.40625zm0.484375 -7.484375q0 0.4375 0.140625 0.8125q0.140625 0.359375 0.40625 0.609375q0.265625 0.25 0.625 0.390625q0.359375 0.140625 0.796875 0.140625q0.46875 0 0.84375 -0.15625q0.375 -0.15625 0.625 -0.421875q0.25 -0.28125 0.375 -0.640625q0.140625 -0.359375 0.140625 -0.734375q0 -0.4375 -0.15625 -0.796875q-0.140625 -0.375 -0.40625 -0.625q-0.265625 -0.25 -0.625 -0.390625q-0.359375 -0.140625 -0.796875 -0.140625q-0.46875 0 -0.84375 0.171875q-0.359375 0.15625 -0.625 0.421875q-0.25 0.265625 -0.375 0.625q-0.125 0.34375 -0.125 0.734375zm9.054169 -2.984375l1.453125 0l0.046875 1.6875q0.8125 -0.984375 1.59375 -1.421875q0.796875 -0.4375 1.59375 -0.4375q1.421875 0 2.15625 0.921875q0.734375 0.921875 0.671875 2.734375l-1.59375 0q0.015625 -1.203125 -0.359375 -1.734375q-0.375 -0.546875 -1.109375 -0.546875q-0.3125 0 -0.640625 0.109375q-0.328125 0.109375 -0.671875 0.359375q-0.328125 0.25 -0.71875 0.640625q-0.375 0.390625 -0.8125 0.953125l0 5.875l-1.609375 0l0 -9.140625zm17.616638 4.078125q0 0.34375 -0.015625 0.578125q0 0.21875 -0.03125 0.421875l-6.421875 0q0 1.40625 0.78125 2.15625q0.796875 0.75 2.265625 0.75q0.40625 0 0.796875 -0.03125q0.40625 -0.03125 0.78125 -0.078125q0.375 -0.0625 0.71875 -0.125q0.34375 -0.078125 0.625 -0.15625l0 1.296875q-0.640625 0.1875 -1.46875 0.296875q-0.8125 0.109375 -1.6875 0.109375q-1.171875 0 -2.015625 -0.3125q-0.84375 -0.3125 -1.390625 -0.921875q-0.546875 -0.609375 -0.8125 -1.484375q-0.24996948 -0.875 -0.24996948 -2.0q0 -0.953125 0.28121948 -1.8125q0.28125 -0.859375 0.8125 -1.515625q0.53125 -0.65625 1.296875 -1.03125q0.78125 -0.390625 1.765625 -0.390625q0.953125 0 1.6875 0.3125q0.75 0.296875 1.25 0.84375q0.5 0.546875 0.765625 1.34375q0.265625 0.78125 0.265625 1.75zm-1.65625 -0.21875q0.03125 -0.609375 -0.125 -1.109375q-0.140625 -0.515625 -0.453125 -0.875q-0.296875 -0.375 -0.75 -0.578125q-0.453125 -0.203125 -1.0625 -0.203125q-0.515625 0 -0.953125 0.203125q-0.421875 0.203125 -0.734375 0.5625q-0.296875 0.359375 -0.5 0.875q-0.1875 0.515625 -0.234375 1.125l4.8125 0zm11.429169 2.78125q0 0.484375 -0.171875 0.875q-0.15625 0.375 -0.4375 0.671875q-0.28125 0.296875 -0.65625 0.515625q-0.375 0.203125 -0.796875 0.34375q-0.421875 0.125 -0.875 0.1875q-0.453125 0.0625 -0.875 0.0625q-0.921875 0 -1.703125 -0.078125q-0.78125 -0.078125 -1.53125 -0.265625l0 -1.453125q0.796875 0.234375 1.59375 0.359375q0.796875 0.109375 1.578125 0.109375q1.140625 0 1.6875 -0.3125q0.546875 -0.3125 0.546875 -0.890625q0 -0.234375 -0.09375 -0.421875q-0.078125 -0.203125 -0.3125 -0.375q-0.21875 -0.1875 -0.703125 -0.375q-0.484375 -0.203125 -1.3125 -0.4375q-0.609375 -0.1875 -1.140625 -0.421875q-0.515625 -0.234375 -0.90625 -0.546875q-0.375 -0.328125 -0.59375 -0.75q-0.21875 -0.421875 -0.21875 -1.015625q0 -0.375 0.171875 -0.828125q0.171875 -0.453125 0.59375 -0.84375q0.4375 -0.40625 1.171875 -0.65625q0.734375 -0.265625 1.8125 -0.265625q0.546875 0 1.203125 0.0625q0.65625 0.0625 1.359375 0.203125l0 1.40625q-0.75 -0.171875 -1.421875 -0.25q-0.65625 -0.09375 -1.15625 -0.09375q-0.59375 0 -1.0 0.09375q-0.390625 0.078125 -0.65625 0.25q-0.25 0.15625 -0.359375 0.375q-0.109375 0.203125 -0.109375 0.453125q0 0.25 0.09375 0.453125q0.109375 0.1875 0.359375 0.375q0.265625 0.1875 0.71875 0.375q0.46875 0.1875 1.21875 0.40625q0.8125 0.234375 1.359375 0.5q0.5625 0.25 0.90625 0.578125q0.359375 0.3125 0.5 0.71875q0.15625 0.40625 0.15625 0.90625zm10.257294 0q0 0.484375 -0.171875 0.875q-0.15625 0.375 -0.4375 0.671875q-0.28125 0.296875 -0.65625 0.515625q-0.375 0.203125 -0.796875 0.34375q-0.421875 0.125 -0.875 0.1875q-0.453125 0.0625 -0.875 0.0625q-0.921875 0 -1.703125 -0.078125q-0.78125 -0.078125 -1.53125 -0.265625l0 -1.453125q0.796875 0.234375 1.59375 0.359375q0.796875 0.109375 1.578125 0.109375q1.140625 0 1.6875 -0.3125q0.546875 -0.3125 0.546875 -0.890625q0 -0.234375 -0.09375 -0.421875q-0.078125 -0.203125 -0.3125 -0.375q-0.21875 -0.1875 -0.703125 -0.375q-0.484375 -0.203125 -1.3125 -0.4375q-0.609375 -0.1875 -1.140625 -0.421875q-0.515625 -0.234375 -0.90625 -0.546875q-0.375 -0.328125 -0.59375 -0.75q-0.21875 -0.421875 -0.21875 -1.015625q0 -0.375 0.171875 -0.828125q0.171875 -0.453125 0.59375 -0.84375q0.4375 -0.40625 1.171875 -0.65625q0.734375 -0.265625 1.8125 -0.265625q0.546875 0 1.203125 0.0625q0.65625 0.0625 1.359375 0.203125l0 1.40625q-0.75 -0.171875 -1.421875 -0.25q-0.65625 -0.09375 -1.15625 -0.09375q-0.59375 0 -1.0 0.09375q-0.390625 0.078125 -0.65625 0.25q-0.25 0.15625 -0.359375 0.375q-0.109375 0.203125 -0.109375 0.453125q0 0.25 0.09375 0.453125q0.109375 0.1875 0.359375 0.375q0.265625 0.1875 0.71875 0.375q0.46875 0.1875 1.21875 0.40625q0.8125 0.234375 1.359375 0.5q0.5625 0.25 0.90625 0.578125q0.359375 0.3125 0.5 0.71875q0.15625 0.40625 0.15625 0.90625zm3.4604187 -6.5625l0.984375 -1.015625l6.125 5.109375l-6.125 5.109375l-0.984375 -1.0l4.96875 -4.09375l-4.96875 -4.109375z" fill-rule="nonzero"/><path fill="#000000" d="m358.42047 60.597534l-2.15625 0l6.359375 -14.828125l2.171875 0l-6.375 14.828125zm17.022919 -12.9375q-0.40625 -0.125 -0.953125 -0.203125q-0.546875 -0.09375 -1.125 -0.09375q-0.390625 0 -0.734375 0.109375q-0.328125 0.09375 -0.578125 0.328125q-0.25 0.21875 -0.390625 0.578125q-0.140625 0.34375 -0.140625 0.84375l0 1.5l3.640625 0l0 1.734375l-3.640625 0l0 6.1875l-2.234375 0l0 -6.1875l-2.6875 0l0 -1.734375l2.6875 0l0 -1.40625q0 -0.984375 0.28125 -1.6875q0.28125 -0.703125 0.796875 -1.15625q0.53125 -0.453125 1.265625 -0.65625q0.75 -0.21875 1.65625 -0.21875q0.609375 0 1.140625 0.078125q0.546875 0.078125 1.015625 0.1875l0 1.796875zm-9.578125 1.734375l0 0zm13.726044 0l0 6.03125q0 0.75 0.28125 1.140625q0.28125 0.390625 0.859375 0.390625q0.5625 0 1.0625 -0.453125q0.515625 -0.46875 1.09375 -1.25l0 -5.859375l2.21875 0l0 9.25l-1.921875 0l-0.046875 -1.359375q-0.296875 0.34375 -0.59375 0.640625q-0.296875 0.296875 -0.65625 0.5q-0.34375 0.203125 -0.765625 0.3125q-0.40625 0.109375 -0.90625 0.109375q-0.71875 0 -1.25 -0.21875q-0.53125 -0.234375 -0.890625 -0.65625q-0.34375 -0.4375 -0.53125 -1.03125q-0.171875 -0.609375 -0.171875 -1.34375l0 -6.203125l2.21875 0zm11.038544 -1.890625l-2.609375 0l0 -1.734375l4.890625 0l0 11.140625l2.671875 0l0 1.734375l-7.875 0l0 -1.734375l2.921875 0l0 -9.40625zm10.257294 0l-2.609375 0l0 -1.734375l4.890625 0l0 11.140625l2.671875 0l0 1.734375l-7.875 0l0 -1.734375l2.921875 0l0 -9.40625z" fill-rule="nonzero"/></g></svg>